<?xml version="1.0" standalone="no"?>
<!DOCTYPE svg PUBLIC "-//W3C//DTD SVG 20010904//EN"
 "http://www.w3.org/TR/2001/REC-SVG-20010904/DTD/svg10.dtd">
<svg version="1.0" xmlns="http://www.w3.org/2000/svg"
 width="1024.000000pt" height="1024.000000pt" viewBox="0 0 1024.000000 1024.000000"
 preserveAspectRatio="xMidYMid meet">
<metadata>
Created by potrace 1.14, written by Peter Selinger 2001-2017
</metadata>
<g transform="translate(0.000000,1024.000000) scale(0.100000,-0.100000)"
fill="#000000" stroke="none">
<path d="M0 5120 l0 -5120 5120 0 5120 0 0 5120 0 5120 -5120 0 -5120 0 0
-5120z m9542 2225 c135 -19 141 -21 135 -54 -3 -14 -124 -204 -269 -421 -145
-217 -301 -453 -347 -525 -47 -71 -112 -173 -146 -225 -138 -212 -440 -691
-694 -1097 -100 -161 -193 -306 -207 -322 -34 -41 -76 -60 -157 -71 -38 -6
-77 -15 -87 -20 -31 -17 -96 -12 -121 9 -21 16 -24 28 -23 78 2 136 154 419
607 1133 278 437 744 1113 911 1320 178 221 185 225 398 195z m-1521 -66 c92
-20 169 -120 169 -221 0 -60 -41 -117 -127 -174 -100 -68 -354 -148 -601 -190
l-103 -18 -72 -96 c-40 -53 -94 -129 -122 -168 -27 -40 -68 -99 -91 -130 -22
-31 -92 -133 -155 -227 -64 -93 -156 -228 -204 -300 -166 -243 -283 -427 -605
-955 -192 -314 -418 -648 -540 -796 -82 -99 -212 -209 -299 -252 -71 -35 -80
-37 -170 -37 -83 0 -103 4 -145 25 -146 75 -159 264 -31 465 128 201 310 395
371 395 14 0 16 -7 11 -45 -5 -47 9 -75 38 -75 12 0 65 66 217 275 221 303
381 540 713 1060 193 302 289 445 408 603 83 111 103 143 85 138 -89 -24 -367
-82 -511 -106 -454 -77 -904 -55 -1114 53 -41 22 -88 77 -103 123 -15 45 -6
181 15 228 22 50 78 103 152 142 96 52 238 73 270 41 13 -13 10 -22 -28 -76
-51 -73 -48 -81 46 -107 48 -13 123 -17 380 -21 348 -5 549 9 902 62 302 46
413 71 458 105 257 192 418 269 620 294 37 4 106 -2 166 -15z m-3339 -70 c65
-14 170 -60 216 -96 84 -64 127 -193 120 -361 -3 -85 -7 -103 -33 -147 -95
-164 -277 -334 -559 -525 -27 -18 -112 -65 -188 -105 l-139 -72 95 -5 c107 -6
182 -34 197 -75 10 -27 -11 -55 -211 -290 -127 -148 -305 -362 -414 -498 -26
-33 -56 -69 -65 -80 -120 -146 -554 -715 -549 -721 6 -5 225 177 382 318 104
94 366 96 366 4 0 -14 -36 -51 -113 -117 -210 -178 -646 -520 -1017 -797 -142
-105 -200 -156 -300 -264 -132 -141 -168 -179 -489 -515 -176 -185 -211 -217
-268 -245 -61 -30 -73 -32 -157 -31 -113 2 -181 25 -213 73 -41 59 -25 126 59
247 98 141 275 312 558 537 150 119 189 154 240 212 29 33 190 208 434 475
297 323 611 689 591 689 -3 0 -43 -35 -88 -77 -256 -240 -368 -330 -629 -506
-232 -157 -428 -249 -622 -292 -115 -26 -271 -18 -347 17 -110 50 -189 146
-230 279 -20 63 -23 95 -23 214 1 177 26 296 102 485 223 554 750 1161 1418
1632 488 346 977 556 1470 632 110 17 335 20 406 5z m2941 -3037 c26 -26 31
-40 35 -91 7 -99 -37 -192 -142 -297 -80 -79 -152 -114 -239 -114 -105 0 -142
46 -135 168 5 92 43 169 123 247 91 89 177 127 278 121 39 -3 55 -10 80 -34z"/>
<path d="M4399 6900 c-396 -36 -932 -297 -1464 -714 -251 -196 -644 -576 -808
-781 -211 -264 -377 -547 -420 -720 -38 -150 -31 -229 28 -293 l34 -37 88 0
c109 1 173 21 368 119 293 148 783 503 1230 891 45 39 112 97 150 130 127 110
287 256 344 315 l56 57 -54 -18 c-213 -73 -399 -55 -477 46 -39 52 -45 135
-15 199 32 64 143 166 182 166 29 0 30 -1 23 -35 -10 -54 8 -68 75 -60 93 11
158 34 305 109 217 111 377 225 496 353 78 84 112 148 108 199 -6 69 -75 90
-249 74z"/>
</g>
</svg>
