<svg xmlns="http://www.w3.org/2000/svg" viewBox="0 0 480.909 103.467"><g stroke-linecap="round" fill-rule="evenodd" font-size="12" stroke="#000" stroke-width=".945" style="stroke:#000;stroke-width:.25mm;fill:#000"><path d="M74.707 18.896a23.987 23.987 0 0 0 .733-.849q2.441-2.972 2.441-5.156 0-5.323-2.197-7.52-.667-.667-1.99-1.283a16.5 16.5 0 0 0-1.135-.475 12.531 12.531 0 0 0-.554-.194 13.286 13.286 0 0 0-4.134-.636 42.225 42.225 0 0 0-7.458.69 55.115 55.115 0 0 0-7.923 2.069 75.91 75.91 0 0 0-15.527 7.3q-7.373 4.541-14.209 10.547a106.212 106.212 0 0 0-4.286 3.975 88.128 88.128 0 0 0-7.53 8.354 72.474 72.474 0 0 0-2.918 3.968 60.236 60.236 0 0 0-5.041 8.849 42.64 42.64 0 0 0-.739 1.706Q0 55.746 0 60.425a20.004 20.004 0 0 0 .09 1.937q.388 3.982 2.449 6.242a8.047 8.047 0 0 0 3.295 2.241q3.968 1.437 10.178-.852a39.185 39.185 0 0 0 3.373-1.438q2.441-1.172 5.346-3.076 2.906-1.905 6.324-4.493a50.584 50.584 0 0 0 1.579-1.252q3.235-2.66 8.479-7.634-2.023 3.015-10.332 12.219a750.021 750.021 0 0 1-4.17 4.577q-6.347 6.885-8.935 9.766a240.484 240.484 0 0 0-1.678 1.292Q5.686 87.972 2.881 92.09a30.32 30.32 0 0 0-.291.405Q.781 95.065.781 96.289q0 2.46 3.578 2.921a14.495 14.495 0 0 0 1.842.106 6.359 6.359 0 0 0 3.288-.915 8.754 8.754 0 0 0 1.79-1.428 3779.109 3779.109 0 0 0 1.611-1.686q9.144-9.572 12.875-13.623a139.836 139.836 0 0 0 1.53-1.684 1170.605 1170.605 0 0 0 1.364-1.012Q46.057 66.042 53.906 59.18a3.56 3.56 0 0 0 .222-.185q.413-.375.413-.67 0-.274-.275-.645a3.356 3.356 0 0 0-.213-.258q-.386-.424-1.774-.513a12.739 12.739 0 0 0-.814-.024 8.964 8.964 0 0 0-.313.005 6.963 6.963 0 0 0-4.57 1.801 118.063 118.063 0 0 1-3.882 3.406 157.526 157.526 0 0 1-4.419 3.577 461.301 461.301 0 0 1 4.382-5.868A519.311 519.311 0 0 1 63.477 34.18q1.318-1.514 1.318-1.905a.918.918 0 0 0-.08-.382 1.021 1.021 0 0 0-.213-.301 2.761 2.761 0 0 0-.712-.562q-.923-.523-2.514-.684a15.497 15.497 0 0 0-1.559-.073q-1.074 0-2.1.342a43.909 43.909 0 0 0 3.525-1.614 53.352 53.352 0 0 0 5.728-3.415 50.363 50.363 0 0 0 3.795-2.843 38.638 38.638 0 0 0 4.042-3.847Zm-25.049 4.2-.244.976q0 .716.834.814a2.461 2.461 0 0 0 .289.016 8.625 8.625 0 0 0 1.962-.254q2.553-.601 6.192-2.627a53.432 53.432 0 0 0 3.875-2.364q1.781-1.201 3.228-2.425a28.177 28.177 0 0 0 1.247-1.119q2.332-2.224 2.951-3.895a3.274 3.274 0 0 0 .223-1.134 1.408 1.408 0 0 0-.88-1.346q-.649-.313-1.778-.356a9.747 9.747 0 0 0-.369-.007q-4.614 0-10.219 1.946a49.66 49.66 0 0 0-1.866.691 71.1 71.1 0 0 0-12.31 6.317 78.535 78.535 0 0 0-.801.519 111.726 111.726 0 0 0-10.655 7.972 125.521 125.521 0 0 0-1.942 1.671 114.305 114.305 0 0 0-6.805 6.465 91.891 91.891 0 0 0-4.011 4.424 72.806 72.806 0 0 0-4.169 5.389 55.249 55.249 0 0 0-3.277 5.28q-2.832 5.224-2.832 8.935 0 1.465.854 2.588a2.769 2.769 0 0 0 1.816 1.068 4.199 4.199 0 0 0 .699.055q5.127 0 16.528-7.861a174.952 174.952 0 0 0 9.029-6.699q4.703-3.713 9.873-8.212a372.124 372.124 0 0 0 7.295-6.525q.195-.195.683-.732a9.602 9.602 0 0 1 .847-.918q.468-.442.946-.75a5.104 5.104 0 0 1 .404-.236 31.725 31.725 0 0 1-2.303.832q-2.257.711-3.924.773a8.437 8.437 0 0 1-.316.006 9.44 9.44 0 0 1-1.849-.171q-1.338-.268-2.35-.952-1.66-1.123-1.66-3.052 0-1.885 1.632-3.56a8.439 8.439 0 0 1 .077-.077 18.723 18.723 0 0 1 .652-.624q1.196-1.085 1.741-1.085.518 0 .643.14a.151.151 0 0 1 .04.104ZM92.553 42.023a7.31 7.31 0 0 0 1.929-4.962 2.048 2.048 0 0 0-.238-.982q-.223-.418-.657-.756a4.038 4.038 0 0 0-.765-.46 8.993 8.993 0 0 0-.981-.395 7.201 7.201 0 0 0-2.29-.386 22.324 22.324 0 0 0-4.022.382q-5.184.95-11.31 4.257-3.858 2.05-6.519 5.249-2.661 3.198-2.661 6.054 0 2.857.537 4.151a3.037 3.037 0 0 0 .522.831q.349.401.863.744a6.842 6.842 0 0 0 1.008.549 26.287 26.287 0 0 0-2.625 1.132q-2.008 1.007-3.414 2.225a8.76 8.76 0 0 0-3.287 6.848 7.419 7.419 0 0 0 2.825 6.008 11.911 11.911 0 0 0 2.643 1.609q2.002.919 4.906 1.22a29.659 29.659 0 0 0 3.053.147 22.478 22.478 0 0 0 6.154-.889q6.554-1.86 13.622-7.607a14.941 14.941 0 0 0 .591-.508q.706-.642 1.069-1.173a2.601 2.601 0 0 0 .293-.54q.267-.706.325-2.589a37.159 37.159 0 0 0 .017-1.147 9.569 9.569 0 0 0-.04-.917q-.186-1.915-1.23-1.915a.573.573 0 0 0-.007 0q-.298.004-.806.315a5.992 5.992 0 0 0-.334.222q-.615.437-2.616 2.05a361.666 361.666 0 0 0-.998.807q-2.856 2.319-6.421 4.565a19.192 19.192 0 0 1-3.011 1.555 14.163 14.163 0 0 1-5.338 1.082 20.41 20.41 0 0 1-.681-.011q-5.813-.194-5.813-3.798a1.119 1.119 0 0 1 .054-.331q.56-1.803 6.879-5.625a114.852 114.852 0 0 1 3.369-1.954 3.748 3.748 0 0 1 .165-.084q.43-.207 1.288-.522a45.952 45.952 0 0 1 .696-.248q1.611-.562 2.881-1.636.912-.772 1.169-1.33a.973.973 0 0 0 .1-.404q0-.494-.412-1.263a8.304 8.304 0 0 0-.32-.543q-.733-1.148-1.367-1.489a.908.908 0 0 0-.089-.024q-.33-.074-1.156-.074-.953 0-3.345.806a28.257 28.257 0 0 1-1.057.334q-1.606.471-2.483.471-1.148 0-1.148-.39 0-1.172 3.125-3.565a91.43 91.43 0 0 1 .068-.052q3.081-2.354 5.206-3.561 2.148-1.221 3.906-1.807a6.619 6.619 0 0 0-.195 1.612q0 .83.342 1.342a.864.864 0 0 0 .131.154q.386.359 1.285.359a8.167 8.167 0 0 0 3.282-.669 9.3 9.3 0 0 0 2.65-1.772 10.041 10.041 0 0 0 .683-.702Z" vector-effect="non-scaling-stroke"/><path d="m122.803 42.285-.098-.097a2.412 2.412 0 0 0-.851.309q-2.055 1.097-7.132 6.038a335.366 335.366 0 0 0-4.467 4.424q-1.731 1.749-3.245 3.341a164.292 164.292 0 0 0-2.811 3.026q-4.15 4.59-9.912 12.256a13.325 13.325 0 0 1-.665.805q-1.166 1.295-1.972 1.295a4.387 4.387 0 0 1-.71-.065q-.857-.141-2.048-.595a40.93 40.93 0 0 1-.603-.234q-1.204-.48-1.521-.718a.947.947 0 0 1-.366-.602 1.466 1.466 0 0 1-.025-.277q0-.398.158-.92a6.364 6.364 0 0 1 .184-.52 16.472 16.472 0 0 1 .253-.6q.129-.289.254-.534a7.818 7.818 0 0 1 .152-.282 20.272 20.272 0 0 1 .185-.319q.3-.509.811-1.328a129.891 129.891 0 0 1 .054-.086q.598-.958 2.158-3.658a606.854 606.854 0 0 0 .747-1.298q2.173-3.785 6.665-11.304a2593.15 2593.15 0 0 0 1.558-2.611q2.551-4.283 3.486-5.9a58.075 58.075 0 0 0 .327-.571 79.933 79.933 0 0 1 .885-1.502q.943-1.557 1.671-2.564a16.202 16.202 0 0 1 .472-.622q1.768-2.239 5.496-2.677a16.546 16.546 0 0 1 1.925-.106q1.172 0 1.172 1.465a4.541 4.541 0 0 1-.231 1.292q-.631 2.061-2.98 5.763a78.601 78.601 0 0 1-1.037 1.587l-2.051 3.077q8.448-9.375 14.258-11.866 2.832-1.22 5.103-1.22a6.842 6.842 0 0 1 1.512.157q1.241.281 2.101 1.063a4.802 4.802 0 0 1 .765.871 3.242 3.242 0 0 1 .578 1.839 5.48 5.48 0 0 1-.144 1.2q-.128.567-.369 1.199a13.439 13.439 0 0 1-.513 1.166 43.615 43.615 0 0 1-1.031 1.965 33.557 33.557 0 0 1-1.044 1.746q-.939 1.463-2.405 3.61a287.144 287.144 0 0 1-.354.516q-1.612 2.35-1.834 2.678a7.316 7.316 0 0 0-.021.032 15.137 15.137 0 0 0-.071.108q-.175.267-.609.944a501.324 501.324 0 0 0-.077.12q-.587.916-.881 1.358a29.309 29.309 0 0 1-.022.033 22.493 22.493 0 0 0-.171.261q-.293.453-.806 1.277a84.724 84.724 0 0 0-.325.527q-.462.755-.773 1.304a1287.396 1287.396 0 0 1-.339.598l-.324.571a2722.247 2722.247 0 0 1-.363.638q-.419.738-.724 1.339a18.681 18.681 0 0 0-.252.516 41.966 41.966 0 0 0-.373.818 52.871 52.871 0 0 0-.384.891 13.18 13.18 0 0 0-.361 1.011q-.312 1.015-.322 1.77a3.755 3.755 0 0 0-.001.051 2.198 2.198 0 0 0 .218 1.012q.581 1.137 2.712 1.137 1.562 0 3.931-1.563a29.271 29.271 0 0 0 3.789-2.958 26.745 26.745 0 0 0 .483-.46q5.015-4.966 5.744-5.028a.21.21 0 0 1 .018-.001.86.86 0 0 1 .745.468q.443.711.512 2.502a18.127 18.127 0 0 1 .012.692 9.124 9.124 0 0 1-.162 1.784q-.206 1.033-.675 1.803a4.196 4.196 0 0 1-1.458 1.443 90.995 90.995 0 0 1-3.292 2.841q-3.043 2.491-5.319 3.789a14.066 14.066 0 0 1-2.18 1.036q-2.014.686-4.414.686a17.058 17.058 0 0 1-.322-.003 6.813 6.813 0 0 1-2.896-.735q-.91-.447-1.814-1.165a12.95 12.95 0 0 1-.417-.346 7.682 7.682 0 0 1-1.69-2.023 6.64 6.64 0 0 1-.849-3.324 14.48 14.48 0 0 1 .318-2.919q.408-1.982 1.342-4.234a63.142 63.142 0 0 1 1.467-3.284q.952-1.97 1.927-3.576a130.983 130.983 0 0 1 1.413-2.273q.636-1.001 1.351-2.093a240.109 240.109 0 0 1 1.508-2.275q2.486-3.704 2.679-4.671a1.023 1.023 0 0 0 .007-.041Z" vector-effect="non-scaling-stroke"/><path d="m132.471 74.756-3.125-.684q-1.295-.134-2.182-1.534a5.775 5.775 0 0 1-.162-.272q-.232-.419-.31-.527a.539.539 0 0 0-.007-.01q-.074-.098-.074-.245 0-.121.068-.328a2.854 2.854 0 0 1 .03-.087q.098-.268.293-.732a9.447 9.447 0 0 0 .342-.952 17.938 17.938 0 0 1 .855-2.075q3.066-6.63 16.283-30.542 14.572-26.362 16.585-29.623a4.845 4.845 0 0 1 .286-.431 159.434 159.434 0 0 1 .354-.421q.494-.586.769-.897.366-.416.83-.708a13.875 13.875 0 0 1 .216-.135q.203-.123.344-.196a2.239 2.239 0 0 1 .123-.06 3.114 3.114 0 0 1 .127-.053q.19-.074.53-.19a34.73 34.73 0 0 1 .222-.075 136.318 136.318 0 0 0 1.016-.343 152.47 152.47 0 0 0 .351-.12q.708-.245 1.49-.66a91.872 91.872 0 0 0 .349-.186q.385-.207.605-.331a9.732 9.732 0 0 0 .12-.068 1.159 1.159 0 0 1 .309-.122q.137-.034.297-.045a2.296 2.296 0 0 1 .151-.004 1.024 1.024 0 0 1 .533.155q.177.106.346.284.415.44.415 1.123v.342q-.244.928-12.72 23.144a22309.484 22309.484 0 0 0-2.942 5.24q-9.674 17.24-10.657 19.077a18.483 18.483 0 0 0 2.13-1.035q2.375-1.322 5.667-3.773a120.01 120.01 0 0 0 3.434-2.663q7.116-5.712 7.476-7.742a1.223 1.223 0 0 0 .019-.168 4.873 4.873 0 0 1 .162-1.115q.214-.774.701-1.302a2.882 2.882 0 0 1 .48-.415q1.269-.879 2.758-.879 1.49 0 2.54 1.001a2.877 2.877 0 0 1 .702 1.102q.326.88.298 2.17-.042 1.991-1.964 4.922a25.893 25.893 0 0 1-.575.839 36.125 36.125 0 0 1-5.421 6.001 40.333 40.333 0 0 1-.536.469 93.873 93.873 0 0 1-4.005 3.231q-3.963 3.008-7.073 4.544a22.161 22.161 0 0 1-1.373.623 41.397 41.397 0 0 0 1.655 3.903q3.342 6.791 7.427 6.791a6.161 6.161 0 0 0 1.814-.587q1.602-.776 3.527-2.512a32.695 32.695 0 0 0 1.495-1.442q1.514-1.514 2.93-3.052 1.324-1.439 1.688-1.788a3.11 3.11 0 0 1 .045-.043 1.033 1.033 0 0 1 .41-.228q.159-.048.351-.06a2.151 2.151 0 0 1 .143-.005q.761 0 1.029.954a3.461 3.461 0 0 1 .094.462 21.309 21.309 0 0 1 .194 2.741 23.325 23.325 0 0 1 .001.189 12.333 12.333 0 0 1-.018.693q-.036.641-.146 1.051a1.886 1.886 0 0 1-.129.355q-1.416 2.735-6.201 6.665a22.631 22.631 0 0 1-2.943 2.073q-3.185 1.858-6.139 1.858a13.113 13.113 0 0 1-1.924-.132q-1.759-.262-2.959-1.04-1.542-1-2.515-1.716a23.546 23.546 0 0 1-.317-.237 9.671 9.671 0 0 1-.907-.791q-.588-.578-1.193-1.333-1.074-1.343-1.782-2.222a11.947 11.947 0 0 1-.461-.616q-.529-.751-1.15-1.825-.904-1.563-1.294-2.222-.391-.659-1.148-2.148-.714-1.406-.841-1.615a.593.593 0 0 0-.013-.021q-.879 1.807-1.953 3.906-1.074 2.1-1.953 3.907a991.585 991.585 0 0 1-.843 1.727 745.01 745.01 0 0 1-.769 1.568 327.109 327.109 0 0 0-.349.713q-.466.953-.8 1.655a107.047 107.047 0 0 0-.047.098q-.427.9-.502 1.012a.096.096 0 0 1-.011.014 1.925 1.925 0 0 1-.189.341q-.311.44-.787.44Z" vector-effect="non-scaling-stroke"/><path d="M192.316 63.278a11.749 11.749 0 0 0 .018-.68q0-4.395-1.27-4.395a.184.184 0 0 0-.016.001q-.675.06-5.208 4.931a19.77 19.77 0 0 1-1.411 1.347 23.408 23.408 0 0 1-2.764 2.046 13.228 13.228 0 0 1-.274.17q-.956.576-1.886.91a7.381 7.381 0 0 1-2.503.458 4.923 4.923 0 0 1-.578-.031q-1.668-.198-1.668-1.629 0-.916.472-2.14a13.035 13.035 0 0 1 .504-1.131q.306-.58.563-1.055a59.204 59.204 0 0 1 .292-.532 13.824 13.824 0 0 1 .08-.143q.256-.448.634-1.038a43.897 43.897 0 0 1 .311-.479q.536-.814.733-1.159a2.907 2.907 0 0 0 .073-.135q10.168-17.517 11.44-20.567a2.006 2.006 0 0 0 .181-.576 2.09 2.09 0 0 0-.001-.073q-.039-1.094-1.22-2.417a4.95 4.95 0 0 0-.67-.63 3.352 3.352 0 0 0-2.088-.737q-1.178 0-3.157 1.245a22.46 22.46 0 0 0-1.287.879 40.593 40.593 0 0 0-2.53 2.002 30.418 30.418 0 0 0-2.401 2.295q-2.027 2.173-2.027 2.685 0 .403.617 1.151a9.602 9.602 0 0 0 .384.436 13.567 13.567 0 0 1 .342.379q.481.558.611.867a.519.519 0 0 1 .048.195q0 .32-2.056 3.687a225.919 225.919 0 0 1-.629 1.024 136.647 136.647 0 0 0-2.015 3.37 164.92 164.92 0 0 0-3.356 6.103q-1.931 3.685-2.474 6.109a7.878 7.878 0 0 0-.212 1.704 5.372 5.372 0 0 0 .328 1.832q.628 1.742 2.455 3.441 2.783 2.588 6.641 2.588a12.227 12.227 0 0 0 2.907-.377q2.802-.688 6.175-2.626a22.409 22.409 0 0 0 1.749-1.114 17.81 17.81 0 0 0 5.868-6.772q.22-.476.275-1.419Zm7.24-40.431a6.63 6.63 0 0 0 .688-2.876 3.611 3.611 0 0 0-.084-.802 2.394 2.394 0 0 0-.697-1.249 2.621 2.621 0 0 0-1.221-.638 3.853 3.853 0 0 0-.879-.094 6.563 6.563 0 0 0-3.647 1.118 9.665 9.665 0 0 0-1.797 1.543 10.724 10.724 0 0 0-1.454 1.947 7.239 7.239 0 0 0-1.012 3.643q0 2.266 1.68 2.78a3.862 3.862 0 0 0 1.128.15q1.933 0 3.762-1.331a11.216 11.216 0 0 0 1.633-1.476q1.254-1.36 1.9-2.715ZM232.471 58.057l-.244 1.025q0 .293.268.537a.932.932 0 0 0 .599.243 1.206 1.206 0 0 0 .06.001q.391 0 .635-.39 5.57-7.402 9.681-13.445a213.137 213.137 0 0 0 2.38-3.572q4.606-7.074 6.837-10.551a564.425 564.425 0 0 0 .169-.264 8334.089 8334.089 0 0 1 1.055-1.645l1.818-2.834a2554.629 2554.629 0 0 1 .668-1.039 126.158 126.158 0 0 1 3.939-5.687 99.527 99.527 0 0 1 3.043-3.932q-11.844 2.983-19.077 3.286a37.709 37.709 0 0 1-1.577.034 94.134 94.134 0 0 1-3.473-.059q-3.335-.124-5.536-.504a15.993 15.993 0 0 1-1.734-.389q-3.271-.952-4.296-2.148-.903-1.053-1.011-2.143a3.015 3.015 0 0 1-.015-.299 29.264 29.264 0 0 1 .086-2.27 26.878 26.878 0 0 1 .012-.147 4.387 4.387 0 0 1 1.36-2.826q.565-.56 1.362-1.042a9.558 9.558 0 0 1 .232-.136 18.144 18.144 0 0 1 1.476-.755q1.791-.807 3.089-.807a9.275 9.275 0 0 1 .568.016q.823.05 1.099.264a.318.318 0 0 1 .14.257 1.014 1.014 0 0 1-.069.346q-.117.319-.431.727a6.576 6.576 0 0 1-.306.367 10.217 10.217 0 0 0-.273.319q-.41.499-.504.779a.47.47 0 0 0-.028.147q0 1.334 8.214 1.529a129.416 129.416 0 0 0 3.065.034 103.707 103.707 0 0 0 10.514-.57q5.381-.55 11.36-1.63a188.137 188.137 0 0 0 4.054-.779 48.365 48.365 0 0 1 4.299-3.149q4.74-3.055 8.63-3.578a11.785 11.785 0 0 1 1.573-.108q4.052 0 5.371 2.294a5.974 5.974 0 0 1 .601 1.197 4.497 4.497 0 0 1 .278 1.538q0 1.04-.919 2.08a6.885 6.885 0 0 1-.668.654 10.491 10.491 0 0 1-1.599 1.122q-.8.462-1.763.867a20.235 20.235 0 0 1-.911.355q-4.196 1.511-9.69 2.48a86.463 86.463 0 0 1-1.833.303 95.995 95.995 0 0 0-1.537 2.03q-1.734 2.347-4.084 5.747a455.882 455.882 0 0 0-2.265 3.307 2374.917 2374.917 0 0 1-2.213 3.257q-3.324 4.881-4.745 6.899-1.709 2.429-5.343 8.335a565.834 565.834 0 0 0-.638 1.04 5549.067 5549.067 0 0 1-2.94 4.797q-2.322 3.782-4.214 6.849-3.027 4.907-6.445 9.692a50.909 50.909 0 0 1-2.982 3.843q-3.227 3.739-6.098 5.156a7.61 7.61 0 0 1-3.371.865 7.226 7.226 0 0 1-2.105-.296 6.073 6.073 0 0 1-1.85-.925q-1.495-1.099-1.644-3.445a8.439 8.439 0 0 1-.016-.535q0-2.424 2.355-5.903a28.913 28.913 0 0 1 .696-.981 93.826 93.826 0 0 1 1.341-1.772q2.043-2.629 3.127-3.526a17.184 17.184 0 0 1 .499-.399q.774-.593 1.187-.731a.704.704 0 0 1 .218-.042.529.529 0 0 1 .22.042q.269.122.269.593ZM297.168 36.182v.293q.684-.098 2.148-.098a3.669 3.669 0 0 1 1.483.329q.751.33 1.52.989a4.149 4.149 0 0 1 1.265 1.99q.205.671.256 1.482a8.807 8.807 0 0 1 .017.557q0 2.454-1.561 6.229a38.13 38.13 0 0 1-.343.802 41.132 41.132 0 0 1-2.59 4.908 52.77 52.77 0 0 1-2.634 3.881q-3.321 4.468-7.3 8.398-3.98 3.931-8.594 6.446a25.333 25.333 0 0 1-3.071 1.431q-1.684.643-3.238.905a12.452 12.452 0 0 1-2.065.178 9.666 9.666 0 0 1-2.71-.361 7.375 7.375 0 0 1-3.32-2.007q-2.271-2.368-2.271-6.592a20.306 20.306 0 0 1 .456-4.158q.404-1.928 1.165-4.013a36.692 36.692 0 0 1 .454-1.179 34.97 34.97 0 0 1 3.786-7.018 31.491 31.491 0 0 1 1.561-2.04 52.709 52.709 0 0 1 7.08-7.055 43.952 43.952 0 0 1 4.294-3.075q4.748-2.952 8.695-3.281a11.761 11.761 0 0 1 .976-.041 8.718 8.718 0 0 1 1.541.127q.834.15 1.49.477a4.074 4.074 0 0 1 1.022.714 2.651 2.651 0 0 1 .21.211q.278.313.278.571Zm-2.783 6.689h-.342q-1.425 0-1.662-1.731a5.622 5.622 0 0 1-.047-.759 21.42 21.42 0 0 0-3.417 1.485q-1.607.861-3.279 2.05a38.115 38.115 0 0 0-.775.566 36.105 36.105 0 0 0-6.982 6.934q-5.309 6.802-6.179 11.807a11.192 11.192 0 0 0-.169 1.718q0 2.655 1.888 2.732a2.807 2.807 0 0 0 .114.003q1.525 0 4.182-1.53a31.951 31.951 0 0 0 1.775-1.107q3.422-2.281 6.79-6.244a50.586 50.586 0 0 0 1.047-1.275 88.903 88.903 0 0 0 2.438-3.205q1.054-1.456 1.897-2.773a38.13 38.13 0 0 0 1.476-2.494q1.702-3.167 1.902-4.547a2.357 2.357 0 0 0 .026-.336 3.668 3.668 0 0 0-.023-.436q-.053-.439-.225-.654a.53.53 0 0 0-.435-.204ZM331.787 65.674v.39q0 2.002 1.465 2.002 1.386 0 3.318-1.224a14.706 14.706 0 0 0 .222-.143 24.661 24.661 0 0 0 2.394-1.785 20.703 20.703 0 0 0 1.244-1.144 151.641 151.641 0 0 0 3.149-3.248 176.35 176.35 0 0 1 .551-.582q.978-1.029 1.306-1.331a2.726 2.726 0 0 1 .072-.064 1.193 1.193 0 0 1 .562-.264 1.675 1.675 0 0 1 .317-.029.937.937 0 0 1 .826.436q.161.241.248.614a7.466 7.466 0 0 1 .129.737q.099.773.113 1.837a27.134 27.134 0 0 1 .002.355q0 1.699-.239 2.341a1.276 1.276 0 0 1-.054.125 10.958 10.958 0 0 1-1.065 1.633q-1.704 2.207-5.16 5.032a22.83 22.83 0 0 1-2.956 2.073q-1.686.98-3.304 1.443a10.317 10.317 0 0 1-2.847.415 12.61 12.61 0 0 1-2.741-.271q-4.583-1.025-4.583-5.93a13.642 13.642 0 0 1 .286-2.645q.541-2.721 2.104-6.276a54.137 54.137 0 0 1 .54-1.187 70.014 70.014 0 0 1-4.37 5.155 54.257 54.257 0 0 1-3.687 3.586 43.642 43.642 0 0 1-3.905 3.059q-5.204 3.581-9.327 3.581a6.993 6.993 0 0 1-1.855-.231 4.747 4.747 0 0 1-2.76-1.966 7.48 7.48 0 0 1-.936-2.011q-.553-1.798-.553-4.312 0-4.126 3.223-9.888 3.222-5.762 8.032-10.376a47.291 47.291 0 0 1 10.669-7.715 31.465 31.465 0 0 1 4.264-1.889q2.368-.833 4.565-1.093a16.672 16.672 0 0 1 1.962-.118 3.267 3.267 0 0 1 1.165.235q.966.369 2.095 1.318a14.035 14.035 0 0 1 .402.351 66.559 66.559 0 0 0 .734-1.198q1.16-1.931 3.176-5.469a779.207 779.207 0 0 0 1.315-2.317q11.962-20.166 15.82-24.61a6.508 6.508 0 0 1 3.569-2.339q1.266-.346 2.827-.346a2.366 2.366 0 0 1 .635.08 1.731 1.731 0 0 1 .83.506 2.466 2.466 0 0 1 .306.405q.162.273.211.552a1.389 1.389 0 0 1 .02.239 1.383 1.383 0 0 1-.052.342q-.171.652-.9 1.904a75.18 75.18 0 0 1-.534.9q-.893 1.483-2.667 4.347a1226.965 1226.965 0 0 1-1.169 1.882 2075.385 2075.385 0 0 0-1.614 2.598q-2.28 3.676-3.708 6.02a676.842 676.842 0 0 0-5.243 8.661q-7.416 12.469-12.14 21.808a260.634 260.634 0 0 0-2.141 4.322q-3.927 8.136-4.145 10.463a2.731 2.731 0 0 0-.013.254Zm1.904-24.414a30.364 30.364 0 0 0-11.17 5.07 36.2 36.2 0 0 0-1.915 1.473q-6.055 4.98-9.083 10.425-3.027 5.444-3.027 7.055a5.732 5.732 0 0 0 .022.527q.101 1.085.662 1.085a3.388 3.388 0 0 0 1.547-.54q3.345-1.898 11.096-10.468a248.416 248.416 0 0 0 1.859-2.078 146.499 146.499 0 0 0 6.003-7.143 116.805 116.805 0 0 0 4.006-5.406Z" vector-effect="non-scaling-stroke"/><path d="M382.509 36.571a8.028 8.028 0 0 0-1.308-.096 10.435 10.435 0 0 0-.292.004q-.872.024-1.484.198a2.829 2.829 0 0 0-.641.261 2.649 2.649 0 0 0-.403.294q-.457.395-1.011 1.13a17.058 17.058 0 0 0-.563.798q-.297-.891-1.152-1.581a5.89 5.89 0 0 0-.948-.616 6.365 6.365 0 0 0-.955-.406q-.748-.251-1.644-.369a13.061 13.061 0 0 0-1.698-.104 16.868 16.868 0 0 0-4.898.765q-2.505.758-5.162 2.269a40.26 40.26 0 0 0-4.881 3.314q-3.858 3.027-7.08 6.714-3.223 3.686-5.2 8.154a25.279 25.279 0 0 0-.771 1.952 21.064 21.064 0 0 0-1.207 6.935 12.082 12.082 0 0 0 .237 2.453 8.164 8.164 0 0 0 2.449 4.456 6.966 6.966 0 0 0 2.923 1.671 8.992 8.992 0 0 0 2.496.331q2.491 0 6.066-2.06a34.533 34.533 0 0 0 2.504-1.602 42.029 42.029 0 0 0 9.302-8.936 10.929 10.929 0 0 0-.762 2.534 14.66 14.66 0 0 0-.215 2.569q0 2.905 1.855 5.297 1.291 1.664 3.584 2.171a10.211 10.211 0 0 0 2.203.222q2.825 0 6.104-2.018a24.942 24.942 0 0 0 2.636-1.888 52.37 52.37 0 0 0 1.583-1.337q2.29-2.015 3.577-3.698a10.885 10.885 0 0 0 1.065-1.655 1.886 1.886 0 0 0 .13-.355q.109-.41.145-1.051a12.333 12.333 0 0 0 .018-.693 23.325 23.325 0 0 0 0-.189 21.309 21.309 0 0 0-.195-2.741 3.461 3.461 0 0 0-.094-.462q-.268-.954-1.029-.954a2.32 2.32 0 0 0-.279.016q-.167.02-.302.066a.925.925 0 0 0-.298.162 1.799 1.799 0 0 0-.078.07q-.298.281-1.188 1.262a141.442 141.442 0 0 0-.516.572q-1.489 1.661-3.052 3.247a22.703 22.703 0 0 1-.822.794 25.915 25.915 0 0 1-2.742 2.185q-1.283.891-2.345 1.212a3.893 3.893 0 0 1-1.122.18q-1.465 0-1.465-2.686a9.882 9.882 0 0 1 .001-.166q.013-.76.146-1.201.48-2.596 1.728-5.896a64.951 64.951 0 0 1 1.519-3.65 152.501 152.501 0 0 1 1.538-3.318q.747-1.56 1.451-2.922a71.056 71.056 0 0 1 1.6-2.94 146.612 146.612 0 0 1 .027-.046q1.633-2.822 2.366-3.798a3.7 3.7 0 0 1 .317-.379 1.872 1.872 0 0 0 .398-.605q.237-.562.237-1.397a3.33 3.33 0 0 0-.003-.143q-.082-1.915-2.4-2.3Zm-20.647 10.535a44.796 44.796 0 0 0-4.44 4.066 37.416 37.416 0 0 0-3.678 4.536 47.199 47.199 0 0 0-2.157 3.423q-2.362 4.118-2.628 5.927a2.917 2.917 0 0 0-.033.421 4.469 4.469 0 0 0 .034.58q.149 1.129.942 1.129 1.286 0 6.886-4.769a140.892 140.892 0 0 0 .732-.627 185.079 185.079 0 0 0 2.821-2.483q3.754-3.376 5.333-5.273a15.615 15.615 0 0 0 .146-.179q1.835-2.313 6.603-8.83a1392.676 1392.676 0 0 0 2.284-3.132q-6.258 0-12.845 5.211Z" vector-effect="non-scaling-stroke"/><path d="M387.256 75.391h-.342a6.184 6.184 0 0 1-2.592-.587 8.26 8.26 0 0 1-1.168-.658q-1.606-1.078-1.822-3.565a9.326 9.326 0 0 1-.033-.806 17.568 17.568 0 0 1 1.975-8.03 21.084 21.084 0 0 1 .515-.954 153.189 153.189 0 0 1 .52-.888q.902-1.529 2.532-4.239a219.837 219.837 0 0 0 3.081-5.283 191.333 191.333 0 0 0 .947-1.699 61.359 61.359 0 0 0 1.726-2.808q.873-1.504 1.768-3.214a100.118 100.118 0 0 0 .119-.228 167.053 167.053 0 0 1 .873-1.656q1.227-2.293 1.959-3.447a6.959 6.959 0 0 1 .423-.599q.746-.939 1.433-.939a1.922 1.922 0 0 1 .599.107q.715.236 1.671.992 1.392 1.098 1.392 2.612a3.188 3.188 0 0 1-.22.91q-.79 2.254-4.411 8.983a390.963 390.963 0 0 1-1.765 3.242q-6.397 11.621-6.397 13.232 0 .31.246.374a.576.576 0 0 0 .145.017 2.015 2.015 0 0 0 .714-.173q1.548-.619 5.003-3.466a80.553 80.553 0 0 0 .118-.097 81.033 81.033 0 0 0 3.521-3.1q3.046-2.832 6.464-6.494 4.673-4.972 7.8-9.286a57.872 57.872 0 0 0 1.77-2.58 39.927 39.927 0 0 1 .209-.322q.228-.346.4-.589a10.097 10.097 0 0 1 .099-.138q.269-.367.684-.977.415-.61.684-.952a334.835 334.835 0 0 1 .215-.274l.2-.254a609.284 609.284 0 0 1 .219-.278 7.297 7.297 0 0 1 .243-.293q.224-.255.416-.415a10.374 10.374 0 0 1 .462-.362 11.984 11.984 0 0 1 .173-.126 1.959 1.959 0 0 1 .512-.342 1.647 1.647 0 0 1 .685-.146q.659 0 2.002.293a10.943 10.943 0 0 1 .465.111q.928.246 1.146.523.268.342.561.635.298.328.414.628a1.031 1.031 0 0 1 .075.373q0 .413-.31 1.058a6.254 6.254 0 0 1-.081.163q-.369.714-4.086 6.973a2403.143 2403.143 0 0 1-.455.766q-12.207 20.606-16.797 30.078a369.749 369.749 0 0 0 4.089-3.5q4.608-3.997 10.825-9.591a1514.879 1514.879 0 0 0 5.985-5.415 2.297 2.297 0 0 1 .385-.258q.258-.136.515-.17a1.323 1.323 0 0 1 .174-.011q1.335 0 1.492 3.61a23.69 23.69 0 0 1 .021 1.029 5.983 5.983 0 0 1-.026.59q-.059.585-.244.93a1.043 1.043 0 0 1-.218.286q-14.599 11.231-27.49 25.098-.208.208-1.141 1.848a113.233 113.233 0 0 0-.348.618 111.589 111.589 0 0 1-2.661 4.492 23.172 23.172 0 0 1-2.706 3.512 26.636 26.636 0 0 1-.786.809 15.623 15.623 0 0 1-.995.908q-1.428 1.186-2.471 1.314-1.392.171-1.783.171a6.401 6.401 0 0 1-1.777-.225q-1.994-.578-2.523-2.635a6.759 6.759 0 0 1-.192-1.681 12.894 12.894 0 0 1 .713-4.059q1.143-3.444 4.123-7.49a47.398 47.398 0 0 1 .682-.902 47.382 47.382 0 0 1 2.042-2.43q1.085-1.209 2.36-2.493a82.475 82.475 0 0 1 .871-.864q3.04-2.969 3.437-3.475a.998.998 0 0 0 .03-.04 5.204 5.204 0 0 0 .178-.305q.994-1.77 7.146-13.391-3.818 4.175-7.182 7.072a53.37 53.37 0 0 1-1.509 1.253 21.425 21.425 0 0 1-2.718 1.867q-2.562 1.465-4.997 1.722ZM475.928 0l3.76.488q.846 0 1.106.376a.696.696 0 0 1 .114.406.439.439 0 0 1-.009.08q-.025.131-.12.383a8.18 8.18 0 0 1-.066.171 1100.095 1100.095 0 0 0-13.899 20.945q-7.017 10.823-14.642 23.046a1948.002 1948.002 0 0 0-5.15 8.304q-1.026 1.709-2.002 2.002-.049 0-.098.049-.038.038-.12.09a2.013 2.013 0 0 1-.051.032q-.095.057-.234.099a1.753 1.753 0 0 1-.083.023 3.946 3.946 0 0 1-.847.229q-.392.062-.834.064a6.481 6.481 0 0 1-.028 0 5.16 5.16 0 0 0-.452.018q-.623.055-.916.275-.39.293-1.513.293a2.524 2.524 0 0 1-.725-.095q-.799-.239-1.008-1.085a2.82 2.82 0 0 1-.074-.675 6.093 6.093 0 0 1 .346-1.75q1.309-4.109 7.577-14.248a280.777 280.777 0 0 1 .451-.726q8.374-13.452 16.431-25a373.936 373.936 0 0 1 2.817-3.986q5.661-7.891 7.486-9.32a1.546 1.546 0 0 1 .427-.219q.688-.243 2.055-.266a17.508 17.508 0 0 1 .301-.003Zm-46.432 69.302a7.208 7.208 0 0 0-1.517 4.404 6.707 6.707 0 0 0 0 .043q.019 3.058 2.832 3.058a5.775 5.775 0 0 0 1.624-.234q1.1-.321 2.166-1.082a11.252 11.252 0 0 0 1.654-1.468 13.84 13.84 0 0 0 .593-.673q2.019-2.452 2.019-4.942a4.114 4.114 0 0 0-.126-1.067q-.344-1.276-1.617-1.629a4.169 4.169 0 0 0-1.113-.136 6.407 6.407 0 0 0-.764.046q-2.441.293-4.681 2.469a10.234 10.234 0 0 0-1.07 1.211Z" vector-effect="non-scaling-stroke"/></g></svg>